<?xml version="1.0" encoding="UTF-8" standalone="no"?><!DOCTYPE svg PUBLIC "-//W3C//DTD SVG 1.1//EN" "http://www.w3.org/Graphics/SVG/1.1/DTD/svg11.dtd"><svg width="100%" height="100%" viewBox="0 0 183 159" version="1.1" xmlns="http://www.w3.org/2000/svg" xmlns:xlink="http://www.w3.org/1999/xlink" xml:space="preserve" xmlns:serif="http://www.serif.com/" style="fill-rule:evenodd;clip-rule:evenodd;stroke-linejoin:round;stroke-miterlimit:1.41421;"><path id="Guides" d="M176.7,35.93c-0.563,-1.356 -1.894,-2.244 -3.362,-2.244c-1.953,0 -3.576,1.572 -3.638,3.524c-0.001,0.434 0.077,0.864 0.23,1.27c3.536,9.417 5.347,19.394 5.347,29.453c0,41.836 -31.332,77.583 -72.807,83.067l0,-39.1c2.466,-0.489 4.898,-1.137 7.28,-1.94l0,32.85c34.384,-8.374 58.78,-39.425 58.78,-74.813c0,-27.998 -15.27,-53.873 -39.78,-67.407c-0.534,-0.291 -1.132,-0.444 -1.74,-0.444c-1.383,0 -2.652,0.791 -3.26,2.034c-0.246,0.501 -0.376,1.052 -0.38,1.61c-0.003,1.317 0.716,2.535 1.87,3.17c22.15,12.272 35.941,35.68 35.941,61.002c0,28.59 -17.58,54.41 -44.181,64.888l0,-29.14c4.633,-1.434 7.825,-5.731 7.86,-10.58c0.045,-3.961 -2.053,-7.652 -5.48,-9.64c2.62,-25.13 14.1,-18.49 14.1,-26.49l0,-4.69c0,-12 -27.76,-51.11 -40.76,-52l-2.41,0c-13,0.94 -40.79,40 -40.79,52.05l0,4.64c0,8 11.45,1.36 14.06,26.49c-3.419,1.993 -5.509,5.683 -5.46,9.64c0.038,4.855 3.24,9.153 7.88,10.58l0,29.14c-26.608,-10.474 -44.195,-36.298 -44.195,-64.893c0,-25.34 13.811,-48.762 35.985,-61.027c1.152,-0.642 1.869,-1.861 1.869,-3.18c0,-1.997 -1.643,-3.64 -3.64,-3.64c-0.006,0 -0.013,0 -0.019,0c-0.609,-0.003 -1.209,0.152 -1.74,0.45c-24.51,13.534 -39.78,39.409 -39.78,67.407c0,35.388 24.396,66.439 58.78,74.813l0,-32.85c2.382,0.803 4.814,1.451 7.28,1.94l0,39.13c-41.458,-5.501 -72.769,-41.241 -72.769,-83.062c0,-10.061 1.812,-20.04 5.349,-29.458c0.684,-1.816 -0.207,-3.876 -2,-4.62c-0.448,-0.197 -0.931,-0.299 -1.42,-0.3c-1.517,0.001 -2.881,0.949 -3.41,2.37c-3.845,10.236 -5.814,21.082 -5.814,32.017c0,48.545 38.82,88.991 87.324,90.983l0,-46.11c1.3,0.07 3.69,0.11 3.69,0.11c0,0 2.39,0 3.69,-0.11l0,46.07c48.504,-1.992 87.324,-42.438 87.324,-90.983c0,-10.935 -1.969,-21.781 -5.814,-32.017l0.01,0.04Zm-68.4,51.91c1.402,-1.403 3.307,-2.192 5.29,-2.192c4.103,0 7.48,3.377 7.48,7.48c0,4.104 -3.377,7.48 -7.48,7.48c-4.103,0 -7.479,-3.375 -7.48,-7.478c-0.003,-1.984 0.786,-3.889 2.19,-5.29Zm-33.59,10.58c-1.402,1.403 -3.307,2.192 -5.29,2.192c-4.103,0 -7.48,-3.377 -7.48,-7.48c0,-4.104 3.377,-7.48 7.48,-7.48c4.103,0 7.479,3.375 7.48,7.478c0.006,1.984 -0.783,3.891 -2.19,5.29Z" style="fill:#fff;fill-rule:nonzero;"/></svg>