<?xml version="1.0" encoding="UTF-8" standalone="no"?><!DOCTYPE svg PUBLIC "-//W3C//DTD SVG 1.1//EN" "http://www.w3.org/Graphics/SVG/1.1/DTD/svg11.dtd"><svg width="100%" height="100%" viewBox="0 0 72 72" version="1.1" xmlns="http://www.w3.org/2000/svg" xmlns:xlink="http://www.w3.org/1999/xlink" xml:space="preserve" xmlns:serif="http://www.serif.com/" style="fill-rule:evenodd;clip-rule:evenodd;stroke-linejoin:round;stroke-miterlimit:1.41421;"><g><path d="M53.449,49.026l-1.682,1.265l-10.296,0.047l-7.913,-10.866c-0.683,-0.908 -0.499,-2.212 0.41,-2.895l6.464,-4.861c0.909,-0.683 2.211,-0.499 2.894,0.41l10.533,14.005c0.683,0.909 0.499,2.212 -0.41,2.895m-20.383,1.511l-14.945,0l0,-29.631l14.945,0l0,29.631Zm9.142,-29.876c2.706,0 4.9,2.194 4.9,4.901c0,2.706 -2.194,4.901 -4.9,4.901c-2.707,0 -4.902,-2.195 -4.902,-4.901c0,-2.707 2.195,-4.901 4.902,-4.901m-6.16,-20.495c-19.816,0 -35.881,16.065 -35.881,35.881c0,19.817 16.065,35.882 35.881,35.882c19.817,0 35.881,-16.065 35.881,-35.882c0,-19.816 -16.064,-35.881 -35.881,-35.881" style="fill:#fff;"/></g></svg>