<?xml version="1.0" encoding="UTF-8" standalone="no"?><!DOCTYPE svg PUBLIC "-//W3C//DTD SVG 1.1//EN" "http://www.w3.org/Graphics/SVG/1.1/DTD/svg11.dtd"><svg width="100%" height="100%" viewBox="0 0 1521 1371" version="1.1" xmlns="http://www.w3.org/2000/svg" xmlns:xlink="http://www.w3.org/1999/xlink" xml:space="preserve" xmlns:serif="http://www.serif.com/" style="fill-rule:evenodd;clip-rule:evenodd;stroke-linejoin:round;stroke-miterlimit:1.41421;"><g id="レイヤー-1" serif:id="レイヤー 1"><path d="M3.304,390.145l96.859,153.771c0,0 53.595,4.492 25.212,-86.083c24.496,-46.296 72.458,-108.621 166.096,-180.567l0,1024.38c-40.371,11.371 -93.708,32.759 -57.342,69.188l278.254,0c36.709,-36.771 -21.141,-58.896 -56.4,-69.188l0,-241.671c0,0 190.771,74.892 396.434,74.892c180.704,0 345.121,-53.754 467.404,-150.892c122.3,-96.604 201.083,-240.775 200.617,-405.641c0.345,-161.829 -68.888,-310.35 -188.13,-414.113c-119.15,-104.133 -285.983,-164.225 -479.891,-164.225c-505.375,0 -849.113,390.146 -849.113,390.146Zm452.679,575.279l0,-220.104l0,-548.379c96.517,-68.613 253.042,-110.858 379.459,-110.604c153.566,0.116 274.162,58.154 355.679,146.241c81.433,88.613 125.867,206.33 126.283,343.18c-0.504,133.325 -48.004,243.125 -132.587,327.362c-84.55,83.529 -207.521,136.321 -349.375,136.229l-0.725,0c-157.946,0 -290.884,-30.637 -378.734,-73.925Z" style="fill:#fff;fill-rule:nonzero;"/></g></svg>