<?xml version="1.0" encoding="UTF-8" standalone="no"?><!DOCTYPE svg PUBLIC "-//W3C//DTD SVG 1.1//EN" "http://www.w3.org/Graphics/SVG/1.1/DTD/svg11.dtd"><svg width="100%" height="100%" viewBox="0 0 129 80" version="1.1" xmlns="http://www.w3.org/2000/svg" xmlns:xlink="http://www.w3.org/1999/xlink" xml:space="preserve" xmlns:serif="http://www.serif.com/" style="fill-rule:evenodd;clip-rule:evenodd;stroke-linejoin:round;stroke-miterlimit:1.41421;"><g><path d="M107.4,24.9c-0.2,-4.4 0.4,-8.3 -1.6,-11.6c-4.8,-8.2 -16.8,-13 -40.8,-13l0,0.7l-0.5,0l0.5,0l0,-0.7c-24,0 -36.6,4.8 -41.4,13.1c-1.9,3.4 -1.7,7.2 -2,11.6c-0.2,3.5 -1.8,7.2 -1.1,11.2c0.8,5.2 1.1,10.4 1.9,15.2c0.6,3.9 6,7.2 6.5,10.9c1.4,10.2 12,14.9 36,14.9l0,0.8l-0.6,0l0.7,0l0,-0.8c24,0 34.2,-4.7 35.5,-14.9c0.5,-3.8 5.5,-7 6.1,-10.9c0.8,-4.8 1.1,-10 1.9,-15.2c0.7,-4 -0.9,-7.8 -1.1,-11.3Z" style="fill:#efcca3;fill-rule:nonzero;"/><path d="M64.6,28.5c4.3,0.1 7.3,2.8 10.1,5.3c3.3,2.9 8.9,4.9 11.2,7.4c2.3,2.5 5.3,5 6.4,8.9c1.1,3.9 1.4,8.9 1.4,10.2c0,1.3 0.7,1 2.7,0c4.7,-2.3 9.9,-8.5 9.9,-8.5c-0.6,3.9 -5.7,7.4 -6.2,11.1c-1.2,10.2 -11.1,15.1 -35.6,15.1l-0.1,0l0.6,0" style="fill:#ccac8d;fill-rule:nonzero;"/><path d="M80.4,20.7c0.9,3.1 4.1,13.6 -2.1,10.1c0,0 2.6,1.5 4.2,7.2c1.7,5.7 5.8,6.4 5.8,6.4c0,0 6.7,1.3 11.7,-3c4.2,-3.6 4.9,-10 3.1,-14.9c-1.8,-4.8 -5,-6.3 -9.7,-7.3c-4.7,-1.1 -14.1,-2 -13,1.5Z" style="fill:#ccac8d;fill-rule:nonzero;"/><g><circle cx="92.3" cy="32.1" r="8.8"/><circle cx="90" cy="28.2" r="2.3" style="fill:#fff;"/></g><path d="M78.9,31.7c0,0 7.9,5.4 12.2,10.7c4.3,5.3 4.2,6.3 4.2,6.3l-3.1,1.4c0,0 -4.4,-8.3 -9.8,-11.4c-5.5,-3.1 -6.1,-5.7 -6.1,-5.7l2.6,-1.3Z" style="fill:#efcca3;fill-rule:nonzero;"/><path d="M64.9,28.5c-4.3,0.1 -7.5,2.8 -10.4,5.3c-3.3,2.9 -9.1,4.9 -11.4,7.4c-2.3,2.5 -5.4,5 -6.5,8.9c-1.1,3.9 -1.5,8.9 -1.5,10.2c0,1.3 0.2,1.4 -2.7,0c-4.7,-2.2 -9.9,-8.5 -9.9,-8.5c0.6,3.9 5.7,7.4 6.2,11.1c1.4,10.2 11.3,15.1 35.8,15.1l0.5,0" style="fill:#ccac8d;fill-rule:nonzero;"/><path d="M88.1,45.4c-4.8,-5.9 -12.5,-11.4 -23.2,-11.4l-0.1,0c-10.7,0 -18.4,5.5 -23.2,11.4c-5,6.1 -4.6,8.5 -4.6,14.3c0,21 7.4,15 12.3,17.6c5,2.5 10.2,1.7 15.5,1.7l0.1,0c5.4,0 10.5,0.7 15.5,-1.8c4.9,-2.5 12.3,3.7 12.3,-17.3c0.1,-5.8 0.4,-8.4 -4.6,-14.5Z" style="fill:#56332b;fill-rule:nonzero;"/><path d="M64.4,39.2c0,0 -0.7,9.7 -2.1,11.6l2.6,-0.6l-0.5,-11Z" style="fill:#442823;fill-rule:nonzero;"/><path d="M65.1,39.2c0,0 0.7,9.7 2.1,11.6l-2.6,-0.6l0.5,-11Z" style="fill:#442823;fill-rule:nonzero;"/><path d="M56.7,36.9c-1,-2.3 2.6,-6 8.3,-6.1c5.7,0 9.3,3.7 8.3,6.1c-1,2.4 -4.6,3.1 -8.3,3.2c-3.6,-0.1 -7.3,-0.8 -8.3,-3.2Z" style="fill:#56332b;fill-rule:nonzero;"/><path d="M65,39.2c0,-0.4 3.4,-0.5 5.2,-1.7c0,0 -3.7,1.2 -4.5,0.7c-0.8,-0.4 -1,-1.6 -1,-1.6c0,0 -0.3,1.2 -0.9,1.6c-0.7,0.4 -4.9,-0.7 -4.9,-0.7c0,0 5.6,1.4 5.6,1.7c0,0.3 -0.1,1.3 -0.1,2c0,2.5 0,8.7 0.4,9.2c0.6,0.9 0.4,-6.7 0.4,-9.2c-0.1,-0.8 -0.1,-1.6 -0.2,-2Z" style="fill-rule:nonzero;"/><path d="M65.2,52.6c1.7,0 4.7,1.2 7.4,3.1c-2.6,-2.9 -5.7,-4.9 -7.4,-4.9c-1.8,0 -5.6,2.2 -8.3,5.4c2.8,-2.2 6.4,-3.6 8.3,-3.6Z" style="fill:#7f4a41;fill-rule:nonzero;"/><path d="M64.5,70.3c-3.8,0 -7.5,-1.2 -10.9,-2.1c-0.7,-0.2 -1.4,0.3 -2.1,0.1c-6.3,-2 -11.4,-5.4 -14.5,-9.7c0,0.3 0,0.7 0,1c0,21 7.4,15.1 12.3,17.6c5,2.5 10.2,1.7 15.5,1.7l0.1,0c5.4,0 10.5,0.7 15.5,-1.8c4.9,-2.5 12.3,3.6 12.3,-17.4c0,-0.8 0,-1.6 0.1,-2.3c-2.9,4.7 -8.2,8.4 -14.8,10.6c-0.6,0.2 -2,-0.3 -2.6,-0.2c-3.6,1.2 -6.8,2.5 -10.9,2.5Z" style="fill:#442823;fill-rule:nonzero;"/><path d="M55,59c0,0 -2.5,7.5 -0.8,10.8l-2.3,-1c0,0 1.7,-7.6 3.1,-9.8Z" style="fill:#442823;fill-rule:nonzero;"/><path d="M74.8,59c0,0 2.5,7.5 0.8,10.8l2.3,-1c0,0 -1.8,-7.6 -3.1,-9.8Z" style="fill:#442823;fill-rule:nonzero;"/><path d="M48.6,20.7c-0.9,3.1 -4.1,13.6 2.1,10.1c0,0 -2.6,1.5 -4.2,7.2c-1.6,5.7 -5.8,6.4 -5.8,6.4c0,0 -6.7,1.3 -11.7,-3c-4.2,-3.6 -4.9,-10 -3.1,-14.9c1.8,-4.9 5,-6.3 9.7,-7.3c4.7,-1.1 14,-2 13,1.5Z" style="fill:#ccac8d;fill-rule:nonzero;"/><path d="M64.9,50.8c2.7,0 11.1,5.8 11.2,12.9c0,-0.1 0,-0.2 0,-0.4c0,-7.4 -6.8,-13.3 -11.2,-13.3c-4.4,0 -11.2,6 -11.2,13.3c0,0.1 0,0.2 0,0.4c0.1,-7.1 8.5,-12.9 11.2,-12.9Z" style="fill-rule:nonzero;"/><g><path d="M66.334,34.05c0.427,-0.111 0.942,0.451 1.149,1.252c0.207,0.802 0.027,1.542 -0.4,1.652c-0.428,0.111 -0.943,-0.451 -1.149,-1.252c-0.207,-0.802 -0.028,-1.542 0.4,-1.652Z" style="fill:#331712;"/><path d="M62.832,34.074c0.421,0.131 0.565,0.879 0.319,1.67c-0.245,0.791 -0.786,1.326 -1.208,1.196c-0.422,-0.131 -0.565,-0.879 -0.32,-1.67c0.246,-0.791 0.787,-1.327 1.209,-1.196Z" style="fill:#331712;"/></g><g><circle cx="37.2" cy="32.1" r="8.8"/><circle cx="39.5" cy="28.2" r="2.3" style="fill:#fff;"/></g><path d="M67.5,32.2c0,-0.1 -2.3,1 -2.9,1.1c-0.6,-0.1 -2.9,-1.2 -2.9,-1.1l5.8,0Z" style="fill:#7f4a41;fill-rule:nonzero;"/><path d="M50,31.7c0,0 -7.9,5.4 -12.2,10.7c-4.3,5.3 -4.2,6.3 -4.2,6.3l3.1,1.4c0,0 4.4,-8.3 9.8,-11.4c5.4,-3.1 6.1,-5.7 6.1,-5.7l-2.6,-1.3Z" style="fill:#efcca3;fill-rule:nonzero;"/><path d="M32.7,15.7c0,0 -2.7,7.4 -8.7,10.5c0,0 9.4,-1.1 8.7,-10.5Z" style="fill:#ccac8d;fill-rule:nonzero;"/><path d="M95.8,15.7c0,0 2.7,7.4 8.7,10.5c0,0 -9.4,-1.1 -8.7,-10.5Z" style="fill:#ccac8d;fill-rule:nonzero;"/><path d="M78.7,29.5c0,0 -5.9,-6.2 -13.8,-6.4c-0.1,0 0.2,0 0.1,0c-0.1,0 0.1,0 0.1,0c-8,0.2 -13.8,6.4 -13.8,6.4c6.9,-4.8 12.8,-4.7 13.8,-4.7c-0.1,0 6.7,-0.1 13.6,4.7Z" style="fill:#ccac8d;fill-rule:nonzero;"/><path d="M71.8,16.5c0,0 -3,-4.2 -7,-4.3l0.2,0c-3,0.1 -6.9,4.3 -6.9,4.3c3.4,-3.3 6.9,-3.2 6.9,-3.2c0,0 3.3,-0.1 6.8,3.2Z" style="fill:#ccac8d;fill-rule:nonzero;"/><path d="M37.2,47.2c0,0 -4.7,2.3 -8.1,0.9l-0.1,0c-3,-1.7 -4.5,-6.8 -4.5,-6.8c0,0 3,9 12.7,5.9Z" style="fill:#ccac8d;fill-rule:nonzero;"/><path d="M92,47.2c0,0 4.7,2.3 8.1,0.9c4,-1.7 4.6,-6.8 4.6,-6.8c0,0 -3,9 -12.7,5.9Z" style="fill:#ccac8d;fill-rule:nonzero;"/><path d="M42.6,15.2c2.6,-0.5 6.9,-0.6 10.3,0.5c4.3,1.5 0.8,7 1.7,7.3c0.9,0.3 2.1,-3.8 10.1,-3.4c8.1,0.4 9,4 10.1,3.4c1.1,-0.6 -1.1,-10 11,-7.8c0,0 -12.7,-3.4 -12.1,5.8c0,0 -7.3,-5.6 -17.5,-0.6c0.1,0 2.7,-8.6 -13.6,-5.2Z" style="fill:#ccac8d;fill-rule:nonzero;"/><path d="M86.9,15.2c0.2,0 0.3,0.1 0.4,0.1c0.1,0 -0.1,-0.1 -0.4,-0.1Z" style="fill:#ccac8d;fill-rule:nonzero;"/><path d="M86.9,15.2l0,0Z" style="fill:#ccac8d;fill-rule:nonzero;"/><path d="M39.1,2.9c0,0 -10.8,13.6 -12.4,18.8c-1.6,5.3 -2.8,27 -4.2,30.1l-5,-21.4l9.2,-22.3l12.4,-5.2Z" style="fill:#ccac8d;fill-rule:nonzero;"/><path d="M89.9,2.9c0,0 10.8,13.6 12.4,18.8c1.6,5.3 2.8,27 4.2,30.1l5,-21.4l-9.2,-22.3l-12.4,-5.2Z" style="fill:#ccac8d;fill-rule:nonzero;"/><path d="M89.4,2.9c0,0 11.6,9.7 15,20.9c3.4,11.2 2,24.8 4.6,26.5c3.7,2.4 7.9,-11.9 9.3,-13.4c2.2,-2.4 9.5,-8.5 10,-9.6c0.5,-1.1 -14.8,-17.8 -21.5,-21.1c-8.1,-3.8 -18.1,-4.1 -17.4,-3.3Z" style="fill:#56332b;fill-rule:nonzero;"/><path d="M99.3,8.9c0,0 13.7,17.5 13.5,39.3l5.5,-11.2c-0.1,0 -4.9,-14.3 -19,-28.1Z" style="fill:#442823;fill-rule:nonzero;"/><path d="M39.1,2.9c0,0 -11.6,9.7 -15,20.9c-3.4,11.2 -2,24.8 -4.6,26.5c-3.7,2.4 -7.9,-11.9 -9.3,-13.4c-2.2,-2.4 -9.5,-8.5 -10,-9.6c-0.5,-1.1 14.8,-17.8 21.5,-21.1c8.1,-3.8 18.1,-4.1 17.4,-3.3Z" style="fill:#56332b;fill-rule:nonzero;"/><path d="M29.2,8.9c0,0 -13.7,17.5 -13.5,39.3l-5.4,-11.2c0,0 4.8,-14.3 18.9,-28.1Z" style="fill:#442823;fill-rule:nonzero;"/><path d="M21.8,48.6c0,0 1,5.4 2.6,7.1c1.6,1.7 0.5,-1.3 0.5,-1.3c0,0 -1.7,-0.9 -1.4,-7.8c0.3,-6.9 -1.7,2 -1.7,2Z" style="fill:#ccac8d;fill-rule:nonzero;"/><path d="M107.1,48.6c0,0 -1,5.4 -2.6,7.1c-1.6,1.7 -0.5,-1.3 -0.5,-1.3c0,0 1.7,-0.9 1.4,-7.8c-0.3,-6.9 1.7,2 1.7,2Z" style="fill:#ccac8d;fill-rule:nonzero;"/><g><circle cx="54.5" cy="44.5" r="0.8" style="fill:#442823;"/><circle cx="49.9" cy="49.3" r="0.8" style="fill:#442823;"/><circle cx="48.4" cy="44.5" r="0.8" style="fill:#442823;"/></g><g><circle cx="74" cy="44.5" r="0.8" style="fill:#442823;"/><circle cx="78.6" cy="49.3" r="0.8" style="fill:#442823;"/><circle cx="80.1" cy="44.5" r="0.8" style="fill:#442823;"/></g></g></svg>