<?xml version="1.0" encoding="UTF-8" standalone="no"?><!DOCTYPE svg PUBLIC "-//W3C//DTD SVG 1.1//EN" "http://www.w3.org/Graphics/SVG/1.1/DTD/svg11.dtd"><svg width="100%" height="100%" viewBox="0 0 282 263" version="1.1" xmlns="http://www.w3.org/2000/svg" xmlns:xlink="http://www.w3.org/1999/xlink" xml:space="preserve" xmlns:serif="http://www.serif.com/" style="fill-rule:evenodd;clip-rule:evenodd;stroke-linejoin:round;stroke-miterlimit:1.41421;"><g><path d="M224.594,214.611l-38.082,-38.082c-3.219,-3.219 -4.992,-7.499 -4.992,-12.052c0,-4.552 1.773,-8.833 4.992,-12.051l56.411,-56.412c1.925,-1.925 1.925,-5.059 0,-6.985l-20.79,-20.789c-0.933,-0.933 -2.173,-1.447 -3.492,-1.447c-1.319,0 -2.56,0.514 -3.492,1.447l-12.695,12.695l-8.56,-8.56l12.695,-12.695c3.219,-3.219 7.5,-4.992 12.052,-4.992c4.552,0 8.833,1.773 12.051,4.992l20.79,20.789c6.645,6.646 6.645,17.458 0,24.103l-56.412,56.412c-0.933,0.933 -1.447,2.173 -1.447,3.492c0,1.319 0.514,2.56 1.446,3.492l38.083,38.082l-8.558,8.561Z" style="fill:#8bb5b5;fill-rule:nonzero;"/><path d="M273.172,246.858l-7.772,7.772c-4.292,4.292 -11.251,4.292 -15.544,0l-46.631,-46.631c-4.292,-4.292 -4.292,-11.251 0,-15.544l7.772,-7.772c4.292,-4.292 11.251,-4.292 15.544,0l46.631,46.631c4.293,4.293 4.293,11.252 0,15.544Z" style="fill:#d95612;fill-rule:nonzero;"/><path d="M72.452,125.34l-17.916,17.917l17.916,17.916l17.917,-17.916l-17.917,-17.917Z" style="fill:#24bfbe;"/><path d="M193.317,58.198l23.316,23.316c4.29,4.29 4.29,11.254 0,15.544l-101.034,101.033c-4.29,4.29 -11.254,4.29 -15.544,0l-23.316,-23.316c-4.29,-4.29 -4.29,-11.254 0,-15.544l101.034,-101.034c4.291,-4.29 11.254,-4.29 15.544,0.001Z" style="fill:#25c4c3;fill-rule:nonzero;"/><path d="M90.369,107.423l-17.917,17.917l17.917,17.916l17.916,-17.916l-17.916,-17.917Z" style="fill:#1ddedd;"/><path d="M203.809,68.69l12.824,12.824c4.29,4.29 4.29,11.254 0,15.544l-101.034,101.033c-4.29,4.29 -11.254,4.29 -15.544,0l-12.824,-12.824c4.29,4.29 11.254,4.29 15.544,0l101.034,-101.034c4.29,-4.29 4.29,-11.253 0,-15.543Z" style="fill:#00afb3;fill-rule:nonzero;"/><path d="M108.037,89.755l-17.917,17.917l17.917,17.916l17.916,-17.916l-17.916,-17.917Z" style="fill:#24bfbe;"/><path d="M125.954,71.839l-17.917,17.916l17.917,17.917l17.916,-17.917l-17.916,-17.916Z" style="fill:#1ddedd;"/><path d="M143.87,53.922l-17.917,17.917l17.917,17.916l17.916,-17.916l-17.916,-17.917Z" style="fill:#1bcfce;"/><path d="M161.787,36.006l-17.916,17.917l17.916,17.916l17.917,-17.916l-17.917,-17.917Z" style="fill:#24bfbe;"/><path d="M54.535,107.423l-17.916,17.917l17.916,17.916l17.917,-17.916l-17.917,-17.917Z" style="fill:#1bcfce;"/><path d="M90.12,71.839l-17.916,17.916l17.916,17.917l17.917,-17.917l-17.917,-17.916Z" style="fill:#1bcfce;"/><path d="M125.954,36.006l-17.916,17.916l17.916,17.917l17.917,-17.917l-17.917,-17.916Z" style="fill:#34edeb;"/><path d="M143.87,18.09l-17.916,17.916l17.916,17.917l17.917,-17.917l-17.917,-17.916Z" style="fill:#1bcfce;"/><path d="M72.209,53.917l-17.917,17.917l17.917,17.916l17.916,-17.916l-17.916,-17.917Z" style="fill:#34edeb;"/><path d="M125.959,0.168l-17.917,17.917l17.917,17.916l17.916,-17.916l-17.916,-17.917Z" style="fill:#34edeb;"/><path d="M18.707,71.585l-17.917,17.917l17.917,17.916l17.916,-17.916l-17.916,-17.917Z" style="fill:#98edeb;"/><path d="M258.406,216.548l6.738,6.738c4.29,4.29 4.29,11.254 0,15.544l-7.772,7.772c-4.29,4.29 -11.254,4.29 -15.544,0l-6.738,-6.738c4.29,4.29 11.254,4.29 15.544,0l7.772,-7.772c4.29,-4.29 4.29,-11.254 0,-15.544Z" style="fill:#b53e02;fill-rule:nonzero;"/><path d="M72.204,18.089l-17.917,17.916l17.917,17.917l17.916,-17.917l-17.916,-17.916Z" style="fill:#98edeb;"/><path d="M208.472,73.353l8.16,8.16c4.29,4.29 4.29,11.254 0,15.544l-101.033,101.034c-4.29,4.29 -11.254,4.29 -15.544,0l-8.16,-8.16c4.29,4.29 11.254,4.29 15.544,0l101.034,-101.034c4.289,-4.291 4.289,-11.254 -0.001,-15.544Z" style="fill:#00a3a2;fill-rule:nonzero;"/><path d="M201.478,66.358l-8.16,-8.16c-4.29,-4.29 -11.254,-4.29 -15.544,0l-101.034,101.034c-4.29,4.29 -4.29,11.254 0,15.544l8.16,8.16c-4.29,-4.29 -4.29,-11.254 0,-15.544l101.034,-101.034c4.29,-4.29 11.254,-4.29 15.544,0Z" style="fill:#39d9d8;fill-rule:nonzero;"/><path d="M264.258,222.401l8.028,8.028c4.29,4.29 4.29,11.254 0,15.544l-7.772,7.772c-4.29,4.29 -11.254,4.29 -15.544,0l-8.028,-8.028c4.29,4.29 11.254,4.29 15.544,0l7.772,-7.772c4.29,-4.291 4.29,-11.254 0,-15.544Z" style="fill:#a33904;fill-rule:nonzero;"/><path d="M233.764,191.907l-4.142,-4.142c-6.438,-6.438 -16.877,-6.438 -23.316,0c-6.438,6.438 -6.438,16.877 0,23.316l4.142,4.142c-4.29,-4.29 -4.29,-11.254 0,-15.544l7.772,-7.772c4.291,-4.29 11.254,-4.29 15.544,0Z" style="fill:#eb6e2d;fill-rule:nonzero;"/><path d="M107.827,206.15c-4.23,0 -8.207,-1.646 -11.196,-4.636l-23.316,-23.315c-2.989,-2.99 -4.635,-6.965 -4.635,-11.195c0,-4.23 1.646,-8.207 4.635,-11.196l101.035,-101.034c2.99,-2.989 6.965,-4.636 11.196,-4.636c4.231,0 8.206,1.646 11.196,4.636l23.315,23.315c6.173,6.173 6.173,16.218 0,22.392l-101.035,101.033c-2.989,2.99 -6.965,4.636 -11.195,4.636Zm77.718,-146.328c-1.644,0 -3.188,0.639 -4.348,1.799l-101.034,101.035c-1.161,1.16 -1.799,2.705 -1.799,4.348c0,1.643 0.639,3.188 1.799,4.348l23.316,23.315c1.16,1.161 2.705,1.799 4.348,1.799c1.643,0 3.188,-0.639 4.348,-1.799l101.034,-101.034c1.161,-1.16 1.799,-2.705 1.799,-4.348c0,-1.643 -0.639,-3.188 -1.799,-4.348l-23.315,-23.315c-1.161,-1.161 -2.705,-1.8 -4.349,-1.8Z" style="fill:#13acbd;fill-rule:nonzero;"/><path d="M257.629,262.691c-4.229,0 -8.206,-1.647 -11.196,-4.638l-46.631,-46.63c-6.172,-6.173 -6.172,-16.218 0,-22.391l7.772,-7.772c6.175,-6.173 16.218,-6.172 22.391,0l46.631,46.631c6.173,6.174 6.173,16.218 0,22.391l-7.772,7.772c-2.99,2.99 -6.966,4.637 -11.195,4.637Zm-38.86,-76.382c-1.574,0 -3.149,0.6 -4.348,1.798l-7.772,7.772c-2.397,2.397 -2.397,6.299 0,8.697l46.631,46.63c1.161,1.162 2.706,1.801 4.348,1.801c1.642,0 3.187,-0.64 4.348,-1.801l7.772,-7.772c2.397,-2.397 2.397,-6.298 0,-8.696l-46.631,-46.631c-1.199,-1.198 -2.773,-1.798 -4.348,-1.798Z" style="fill:#bf4404;fill-rule:nonzero;"/></g></svg>