<?xml version="1.0" encoding="UTF-8" standalone="no"?><!DOCTYPE svg PUBLIC "-//W3C//DTD SVG 1.1//EN" "http://www.w3.org/Graphics/SVG/1.1/DTD/svg11.dtd"><svg width="100%" height="100%" viewBox="0 0 201 199" version="1.1" xmlns="http://www.w3.org/2000/svg" xmlns:xlink="http://www.w3.org/1999/xlink" xml:space="preserve" xmlns:serif="http://www.serif.com/" style="fill-rule:evenodd;clip-rule:evenodd;stroke-linejoin:round;stroke-miterlimit:1.41421;"><g><path d="M47.781,86.719c0,0 -31.118,21.903 -32.335,30.247l2.335,-0.48c0,0 37.264,-24.699 66.803,-27.711l0.669,-3.749l-37.472,1.693Z" style="fill:#cc334a;fill-rule:nonzero;"/><path d="M96.629,83.589l-24.511,17.385l1.325,1.063c0.999,-0.806 43.539,-13.798 43.539,-13.798l8.969,-5.623c-6.018,0.749 -29.322,0.973 -29.322,0.973Z" style="fill:#cc334a;fill-rule:nonzero;"/><path d="M117.932,104.616c17.405,0 43.495,-17.046 43.495,-17.046l-8.434,-1.605c-0.417,0.417 -13.6,-0.462 -13.6,-0.462l-6.258,-1.738l-14.951,17.036l-1.217,2.956c1.075,-0.437 0.965,0.859 0.965,0.859Z" style="fill:#cc334a;fill-rule:nonzero;"/><path d="M44.456,169.185c-0.12,-0.055 -0.241,-0.111 -0.361,-0.166c-0.856,-0.739 -1.556,-1.343 -2.013,-1.736l2.374,1.902Zm130.272,-10.206l-5.377,1.514l-24.843,-0.537l-15.542,-12.085l-18.783,4.7l-21.726,-1.88l-12.166,13.294l-22.828,6.819l-11.398,-3.534c-0.363,-0.313 -0.574,-0.494 -0.574,-0.494l5.116,12.527c0,0 11.588,12.424 18.061,13.885c6.472,1.461 18.165,-0.105 26.935,-1.463c8.769,-1.357 15.764,-4.489 18.582,-9.603c2.818,-5.117 3.236,-6.578 3.236,-6.578c0,0 8.353,11.797 15.556,13.155c7.203,1.357 28.605,-5.952 28.605,-5.952c0,0 13.051,-3.549 15.346,-8.038c2.297,-4.489 8.353,-19.209 8.353,-19.209l-6.553,3.479Z" style="fill:#cc334a;fill-rule:nonzero;"/><path d="M195.832,70.232c-0.054,-0.671 -0.128,-1.342 -0.21,-2.009c-0.058,-0.473 -0.133,-0.967 -0.215,-1.424c-1.793,-1.509 -3.831,-2.851 -5.952,-4.071c-2.299,-1.343 -4.704,-2.546 -7.159,-3.663c-2.438,-1.15 -4.942,-2.191 -7.461,-3.207c-1.257,-0.51 -2.525,-1.005 -3.798,-1.477c-1.269,-0.495 -2.55,-0.956 -3.835,-1.424c2.697,0.447 5.366,1.059 8.015,1.741c1.723,0.446 3.437,0.945 5.14,1.477c-12.112,-31.655 -41.07,-52.27 -72.687,-52.27c-31.622,0 -60.577,20.615 -72.686,52.27c1.703,-0.532 3.417,-1.031 5.137,-1.477c2.653,-0.682 5.323,-1.294 8.018,-1.741c-1.289,0.468 -2.567,0.929 -3.84,1.424c-1.267,0.472 -2.536,0.967 -3.798,1.477c-2.519,1.016 -5.016,2.057 -7.46,3.207c-2.45,1.117 -4.857,2.32 -7.156,3.663c-2.121,1.219 -4.157,2.562 -5.957,4.071c-0.075,0.457 -0.151,0.951 -0.21,1.424c-0.081,0.667 -0.155,1.338 -0.21,2.009c-0.118,1.349 -0.166,2.703 -0.177,4.061c-0.027,2.713 0.156,5.426 0.5,8.11c0.37,2.692 0.864,5.366 1.595,7.951c0.36,1.295 0.768,2.572 1.24,3.808c0.237,0.617 0.495,1.225 0.764,1.816c0.134,0.294 0.274,0.585 0.413,0.864l0.172,0.328c0.199,0.101 0.408,0.204 0.607,0.3l1.204,0.575c0.671,0.305 1.6,0.746 2.368,1.09l0.123,-0.114l-2.235,-8.513c0.474,-0.13 4.718,-1.225 12.032,-2.617c-0.59,-0.112 -1.186,-0.241 -1.772,-0.381c-1.665,-0.414 -3.309,-0.919 -4.899,-1.564c-0.79,-0.333 -1.568,-0.697 -2.309,-1.115c-0.742,-0.426 -1.472,-0.908 -2.037,-1.548c8.036,2.622 24.64,1.434 39.399,-0.091c13.499,-1.391 27.029,-2.293 40.63,-2.32c13.602,0.027 27.137,0.929 40.63,2.32c14.766,1.525 31.37,2.713 39.405,0.091c-0.564,0.64 -1.293,1.123 -2.035,1.548c-0.741,0.418 -1.519,0.782 -2.308,1.115c-1.592,0.645 -3.234,1.15 -4.899,1.564c-0.247,0.059 -0.496,0.113 -0.743,0.166c8.02,1.488 12.689,2.697 13.188,2.831l-2.138,8.11c0.43,-0.194 0.864,-0.381 1.29,-0.574l1.202,-0.575c0.2,-0.097 0.403,-0.199 0.607,-0.3l0.166,-0.328c0.146,-0.279 0.286,-0.57 0.419,-0.864c0.27,-0.591 0.528,-1.199 0.764,-1.816c0.473,-1.236 0.882,-2.513 1.241,-3.808c0.731,-2.585 1.225,-5.259 1.595,-7.951c0.345,-2.685 0.526,-5.398 0.501,-8.11c-0.011,-1.356 -0.06,-2.71 -0.179,-4.059Z" style="fill:#f3eead;fill-rule:nonzero;"/><path d="M116.787,182.808c-1.064,0.16 -2.128,0.295 -3.186,0.375c-0.682,0.033 -1.404,0.102 -2.059,0.102l-0.242,0.005c0.822,-1.837 1.446,-3.26 1.919,-4.339c0.963,1.08 2.188,2.417 3.568,3.857Z" style="fill:#e6ccad;fill-rule:nonzero;"/><path d="M119.101,185.165c3.304,3.272 7.398,5.146 11.904,5.479c-7.569,3.074 -14.702,4.26 -20.197,4.63c-5.478,0.367 -11.032,-0.279 -16.474,-1.771c0.456,-0.082 0.79,-0.14 1.193,-0.189c0.447,-0.054 10.206,-1.327 14.605,-7.868l0.413,0.009l1.08,-0.009c0.731,0 1.395,-0.06 2.094,-0.087c1.66,-0.144 3.283,-0.381 4.878,-0.703c0.167,0.171 0.333,0.338 0.504,0.509Z" style="fill:#e6ccad;fill-rule:nonzero;"/><path d="M128.464,87.218c-0.317,0.413 -0.671,0.869 -1.048,1.343c-1.933,2.444 -4.614,5.57 -7.794,8.627c-3.696,-0.114 -7.494,-0.177 -11.404,-0.177c-6.46,0 -12.655,0.171 -18.537,0.457c8.311,-3.449 18.296,-6.818 29.109,-8.842c3.158,-0.598 6.391,-1.076 9.674,-1.408Z" style="fill:#656c67;fill-rule:nonzero;"/><path d="M79.821,90.939c-2.966,2.084 -6.317,4.744 -9.566,7.971c-8.321,0.833 -15.578,1.842 -21.567,2.81c9.207,-4.232 19.713,-8.127 31.133,-10.781Z" style="fill:#656c67;fill-rule:nonzero;"/><path d="M181.48,108.116l-3.384,23.679l-16.212,11.355l-42.283,-4.807l-6.365,-20.961c-0.151,-0.51 -0.581,-0.885 -1.108,-0.971c-1.567,-0.253 -2.953,-0.382 -4.108,-0.382c-1.16,0 -2.541,0.129 -4.115,0.382c-0.522,0.086 -0.95,0.461 -1.106,0.971l-6.209,20.45l-42.047,9.357l-16.662,-11.672l-3.283,-26.572c0.715,-0.404 1.441,-0.806 2.176,-1.209c1.031,-0.222 2.191,-0.457 3.475,-0.704l3.094,25.073c0.048,0.392 0.264,0.741 0.586,0.967l11.462,8.032c0.236,0.16 0.516,0.246 0.795,0.246c0.101,0 0.199,-0.01 0.306,-0.033l34.57,-7.692c0.119,-0.027 0.237,-0.069 0.344,-0.124c0.322,-0.171 0.575,-0.466 0.682,-0.827l6.225,-20.498c1.67,-0.43 5.947,-1.429 9.706,-1.429c3.749,0 8.03,0.999 9.701,1.429l6.225,20.498c0.161,0.532 0.624,0.912 1.176,0.977l34.57,3.927c0.335,0.037 0.677,-0.05 0.952,-0.242l11.469,-8.025c0.31,-0.22 0.52,-0.565 0.573,-0.946l3.062,-21.421c2.301,0.444 4.224,0.846 5.733,1.172Z" style="fill:#656c67;fill-rule:nonzero;"/><path d="M185.751,93.266l-2.976,11.29c-6.086,-1.342 -19.456,-3.975 -37.654,-5.747c5.946,-2.535 12,-5.715 17.531,-9.69c10.829,1.53 18.78,3.169 23.099,4.147Z" style="fill:#656c67;fill-rule:nonzero;"/><path d="M115.498,100.839c-1.665,1.349 -3.421,2.61 -5.249,3.712l-6.097,3.68c-3.824,0.466 -7.143,1.412 -7.331,1.467c-0.112,0.031 -0.219,0.079 -0.317,0.14c-0.296,0.171 -0.521,0.455 -0.629,0.794l-6.209,20.461l-33.185,7.379l-10.452,-7.321l-3.041,-24.634c5.936,-1.09 13.874,-2.352 23.41,-3.42c-1.022,1.225 -2.014,2.508 -2.955,3.855l-5.677,8.149l8.266,-5.511c0.123,-0.086 5.387,-3.549 13.998,-7.761c8.582,-0.644 18.053,-1.059 28.188,-1.059c2.471,-0.001 4.895,0.027 7.28,0.069Zm-51.657,27.749c2.357,-1.274 5.021,-1.085 9.19,-1.079c0.447,0.011 0.908,0.005 1.39,-0.005c0.41,-0.005 0.822,-0.011 1.258,-0.022c4.296,-0.042 7.869,0.366 7.806,-6.381c-0.065,-6.746 -3.062,-12.198 -7.354,-12.155c-4.297,0.037 -8.454,5.564 -8.197,12.306c0.07,1.756 0.328,3.023 0.742,3.937c-3.745,0.938 -4.777,3.255 -4.835,3.399Z" style="fill:#e5caa3;fill-rule:nonzero;"/><path d="M173.015,106.437l-2.992,20.944l-10.539,7.379l-33.141,-3.766l-6.183,-20.363c-0.14,-0.451 -0.494,-0.799 -0.945,-0.934c-0.205,-0.06 -4.308,-1.23 -8.659,-1.607l0.795,-0.053c0.687,-0.049 12.118,-1.451 25.767,-6.157c15.115,1.161 27.458,3.02 35.897,4.557Zm-21.18,19.385c-0.042,-0.16 -0.945,-2.873 -4.942,-2.397c0.461,-1.003 0.666,-2.356 0.521,-4.21c-0.528,-6.731 -4.443,-12.08 -8.735,-11.931c-4.292,0.152 -7.042,5.731 -6.805,12.478c0.236,6.741 3.84,6.694 8.132,6.543c5.77,-0.107 8.939,-1.88 11.829,-0.483Z" style="fill:#e5caa3;fill-rule:nonzero;"/><path d="M115.498,100.839c-1.665,1.349 -3.421,2.61 -5.249,3.712l-6.097,3.68c-3.824,0.466 -7.143,1.412 -7.331,1.467c-0.112,0.031 -0.219,0.079 -0.317,0.14c-0.296,0.171 -0.521,0.455 -0.629,0.794l-6.209,20.461l-33.185,7.379l-10.452,-7.321l-3.041,-24.634c5.936,-1.09 13.874,-2.352 23.41,-3.42c-1.022,1.225 -2.014,2.508 -2.955,3.855l-5.677,8.149l8.266,-5.511c0.123,-0.086 5.387,-3.549 13.998,-7.761c8.582,-0.644 18.053,-1.059 28.188,-1.059c2.471,-0.001 4.895,0.027 7.28,0.069Zm-51.657,27.749c2.357,-1.274 5.021,-1.085 9.19,-1.079c0.447,0.011 0.908,0.005 1.39,-0.005c0.41,-0.005 0.822,-0.011 1.258,-0.022c4.296,-0.042 7.869,0.366 7.806,-6.381c-0.065,-6.746 -3.062,-12.198 -7.354,-12.155c-4.297,0.037 -8.454,5.564 -8.197,12.306c0.07,1.756 0.328,3.023 0.742,3.937c-3.745,0.938 -4.777,3.255 -4.835,3.399Z" style="fill:#c7b39a;fill-rule:nonzero;"/><path d="M173.015,106.437l-2.992,20.944l-10.539,7.379l-33.141,-3.766l-6.183,-20.363c-0.14,-0.451 -0.494,-0.799 -0.945,-0.934c-0.205,-0.06 -4.308,-1.23 -8.659,-1.607l0.795,-0.053c0.687,-0.049 12.118,-1.451 25.767,-6.157c15.115,1.161 27.458,3.02 35.897,4.557Zm-21.18,19.385c-0.042,-0.16 -0.945,-2.873 -4.942,-2.397c0.461,-1.003 0.666,-2.356 0.521,-4.21c-0.528,-6.731 -4.443,-12.08 -8.735,-11.931c-4.292,0.152 -7.042,5.731 -6.805,12.478c0.236,6.741 3.84,6.694 8.132,6.543c5.77,-0.107 8.939,-1.88 11.829,-0.483Z" style="fill:#c7b39a;fill-rule:nonzero;"/><path d="M187.481,115.649c0.508,0.419 0.911,1.504 0.456,6.558c-0.559,6.188 -3.16,17.049 -4.771,18.8c-1.778,0.344 -5.505,-0.064 -7.778,-0.595c0.393,-1.559 0.505,-2.306 0.822,-3.9l3.975,-2.781c0.317,-0.22 0.526,-0.566 0.58,-0.941l2.778,-19.466c1.686,0.912 3.421,1.899 3.938,2.325Z" style="fill:#e6ccad;fill-rule:nonzero;"/><path d="M40.937,141.055c0.199,0.704 0.408,1.407 0.624,2.1c-2.139,0.628 -6.495,1.23 -8.465,0.886c-1.633,-1.645 -4.679,-12.966 -5.345,-18.978c-0.543,-4.871 -0.162,-5.924 0.333,-6.334c0.575,-0.483 2.728,-1.708 4.593,-2.707l2.519,20.449c0.048,0.393 0.257,0.741 0.586,0.967l5.155,3.617Z" style="fill:#e6ccad;fill-rule:nonzero;"/><path d="M121.347,141.341l-0.151,1.305c0,0 -4.581,4.248 -11.956,5.199c-7.375,0.95 -13.171,-3.582 -13.171,-3.582c0.242,0.788 0.586,2.567 2.256,4.086c-1.965,-0.235 -4.087,-0.393 -6.313,-0.393c-0.804,0 -1.616,0.023 -2.401,0.061c-4.539,0.237 -10.924,7.1 -15.414,14.014c-2.203,0.697 -9.089,2.883 -17.06,5.237c-7.44,-10.309 -11.098,-20.842 -11.469,-21.932l0.005,-0.006c-0.15,-0.419 -0.301,-0.839 -0.441,-1.268l1.913,1.338l0,0.005l4.726,3.309l1.58,1.101c0.236,0.167 0.515,0.253 0.794,0.253c0.102,0 0.204,-0.011 0.305,-0.031l43.435,-9.67c0.487,-0.107 0.881,-0.473 1.025,-0.95l6.194,-20.39c1.069,-0.145 2.008,-0.22 2.814,-0.22c0.801,0 1.746,0.075 2.815,0.22l6.374,20.997c0.162,0.532 0.624,0.919 1.171,0.977l2.969,0.34Z" style="fill:#e6ccad;fill-rule:nonzero;"/><path d="M170.926,140.213l1.402,-0.984c-0.232,0.973 -0.484,1.94 -0.747,2.896c-1.949,6.248 -4.25,11.774 -6.805,16.656c-0.565,0.039 -1.161,0.061 -1.8,0.061c-1.972,0 -3.986,-0.167 -6.215,-0.371c-3.868,-0.355 -10.007,-1.058 -11.946,-1.283c-1.67,-1.332 -7.385,-5.873 -12.14,-9.615c-0.187,-0.151 -0.348,-0.291 -0.505,-0.42c-0.837,-0.708 -1.789,-1.513 -3.717,-1.513c-1.751,0 -4.308,0.638 -10.489,2.508c3.212,-2.401 3.233,-5.5 3.233,-5.5l0.151,-1.305l40.748,4.629c0.332,0.038 0.676,-0.048 0.955,-0.241l4.094,-2.868l3.781,-2.65Z" style="fill:#e6ccad;fill-rule:nonzero;"/><path d="M140.937,54.484c0.124,3.625 0.033,10.194 -1.655,16.345c-0.068,0.237 -0.058,0.479 0,0.704c-2.148,-0.226 -4.297,-0.419 -6.446,-0.591c2.412,-5.054 2.938,-10.436 3.052,-12.332c1.852,-1.317 3.696,-2.896 5.049,-4.126Z" style="fill:#ebd599;fill-rule:nonzero;"/><path d="M79.456,58.609c0.112,1.896 0.638,7.267 3.046,12.317c-2.149,0.171 -4.297,0.37 -6.441,0.596c0.058,-0.221 0.065,-0.457 0,-0.694c-1.686,-6.139 -1.772,-12.714 -1.654,-16.345c1.353,1.231 3.19,2.81 5.049,4.126Z" style="fill:#ebd599;fill-rule:nonzero;"/><path d="M138.347,115.944c1.209,-0.027 2.175,-1.026 2.154,-2.235c-0.021,-1.214 -1.02,-2.181 -2.235,-2.153c-1.213,0.02 -2.175,1.02 -2.152,2.234c0.021,1.208 1.02,2.176 2.233,2.154Zm13.488,9.878c-2.89,-1.396 -6.059,0.377 -11.828,0.484c-4.292,0.151 -7.896,0.198 -8.132,-6.543c-0.237,-6.747 2.513,-12.326 6.805,-12.478c4.292,-0.15 8.207,5.2 8.735,11.931c0.145,1.854 -0.06,3.207 -0.521,4.21c3.996,-0.477 4.899,2.235 4.941,2.396Z" style="fill:#2d3136;fill-rule:nonzero;"/><path d="M138.266,111.548c1.211,-0.022 2.211,0.942 2.233,2.153c0.022,1.212 -0.942,2.212 -2.153,2.234c-1.212,0.022 -2.212,-0.942 -2.234,-2.153c-0.022,-1.212 0.942,-2.212 2.154,-2.234Z" style="fill:#eef7fc;fill-rule:nonzero;"/><path d="M76.85,117.571c1.209,-0.031 2.165,-1.043 2.133,-2.251c-0.033,-1.214 -1.041,-2.17 -2.25,-2.137c-1.215,0.031 -2.172,1.041 -2.139,2.25c0.032,1.215 1.042,2.171 2.256,2.138Zm6.634,3.529c0.063,6.747 -3.509,6.339 -7.806,6.381c-0.435,0.011 -0.848,0.016 -1.258,0.022c-0.482,0.011 -0.944,0.016 -1.39,0.005c-4.168,-0.005 -6.833,-0.194 -9.19,1.079c0.058,-0.145 1.09,-2.461 4.835,-3.4c-0.414,-0.914 -0.673,-2.181 -0.742,-3.937c-0.257,-6.741 3.9,-12.269 8.197,-12.306c4.292,-0.042 7.289,5.411 7.354,12.156Z" style="fill:#2d3136;fill-rule:nonzero;"/><path d="M76.736,113.186c1.212,-0.031 2.219,0.926 2.251,2.138c0.031,1.212 -0.926,2.219 -2.138,2.251c-1.212,0.031 -2.22,-0.926 -2.251,-2.138c-0.031,-1.212 0.926,-2.22 2.138,-2.251Z" style="fill:#eef7fc;fill-rule:nonzero;"/><path d="M49.52,76.005l-0.499,-0.941l-0.02,-2.472l1.3,-14.7l22.562,-5.464l1.404,18.97c-1.093,-1.483 -2.731,-4.84 -3.746,-9.446c-0.543,-2.46 -2.288,-3.16 -4.295,-3.16c-1.751,0 -3.702,0.533 -5.229,0.896c-3.28,0.781 -7.574,1.874 -8.276,3.591c-1.363,3.331 -2.03,12.023 -2.03,12.023l-1.171,0.703Z" style="fill:#ecda9d;fill-rule:nonzero;"/><path d="M166.026,76.005l-1.171,-0.703c0,0 -0.666,-8.692 -2.029,-12.023c-0.703,-1.717 -4.997,-2.81 -8.275,-3.591c-1.528,-0.363 -3.48,-0.896 -5.231,-0.896c-2.008,0 -3.752,0.7 -4.295,3.16c-1.013,4.606 -2.654,7.963 -3.748,9.446l1.407,-18.97l22.562,5.464l1.107,12.53l-0.041,5.043l-0.286,0.54Z" style="fill:#ecda9d;fill-rule:nonzero;"/><path d="M130.726,72.6l-45.482,-0.084l-2.357,-5.307l-1.685,-9.096l-3.707,-2.947l-0.085,-21.183l5.22,-15.438c0,0 0.858,45.47 11.484,45.47l27.627,0c10.626,0 11.224,-45.49 11.224,-45.49l6.912,25.5l-5.023,14.341l-0.254,4.043l-1.769,6.4l-2.105,3.791Z" style="fill:#eddb9e;fill-rule:nonzero;"/><path d="M176.975,80.721c0,0 -0.643,-0.315 -2.572,-1.258c0,0 2.573,1.258 2.572,1.258Zm-2.572,-1.258l-8.103,-2.444l0.012,-1.554l0.417,-0.787l-0.376,-4.256l0.076,-9.481c0,0 2.187,15.692 7.974,18.522Z" style="fill:#eddb9e;fill-rule:nonzero;"/><path d="M166.312,75.465l0.041,-5.043l0.376,4.256l-0.417,0.787Z" style="fill:#ecd69a;fill-rule:nonzero;"/><path d="M38.36,80.721l2.573,-1.258c-1.93,0.943 -2.573,1.258 -2.573,1.258Zm2.573,-1.258c5.788,-2.83 7.975,-18.522 7.975,-18.522l0.093,11.651l-0.184,2.086l0.204,0.386l0.016,1.955l-8.104,2.444Z" style="fill:#eddb9e;fill-rule:nonzero;"/><path d="M49.021,75.064l-0.204,-0.386l0.184,-2.086l0.02,2.472Z" style="fill:#ecd69a;fill-rule:nonzero;"/><path d="M73.568,71.79l-0.098,-0.247c-1.975,-7.187 -1.889,-14.723 -1.712,-18.199l-20.514,5.833c-1.38,8.982 -0.736,15.583 -0.597,16.797c1.703,-0.462 3.411,-0.887 5.131,-1.284c2.835,-0.628 5.693,-1.154 8.556,-1.638c2.869,-0.478 5.747,-0.843 8.626,-1.192c0.205,-0.027 0.404,-0.042 0.608,-0.07Zm8.933,-0.864c-2.408,-5.05 -2.934,-10.422 -3.046,-12.317c-1.858,-1.316 -3.696,-2.895 -5.049,-4.125c-0.119,3.631 -0.032,10.206 1.654,16.345c0.065,0.237 0.058,0.473 0,0.694c2.145,-0.227 4.292,-0.425 6.441,-0.597Zm56.78,-0.098c1.688,-6.15 1.779,-12.72 1.655,-16.345c-1.353,1.23 -3.197,2.809 -5.049,4.125c-0.114,1.896 -0.64,7.278 -3.052,12.332c2.149,0.173 4.298,0.366 6.446,0.591c-0.058,-0.224 -0.068,-0.465 0,-0.703Zm25.409,5.151c0.14,-1.207 0.789,-7.809 -0.591,-16.801l-20.52,-5.833c0.184,3.475 0.265,11.012 -1.707,18.199l-0.101,0.258c0.203,0.021 0.408,0.037 0.606,0.064c5.769,0.661 11.511,1.584 17.189,2.83c1.712,0.398 3.426,0.823 5.124,1.283Zm3.297,0.968c2.755,0.902 5.526,1.858 8.036,3.325c-1.343,-0.532 -2.729,-0.913 -4.126,-1.257c-1.391,-0.355 -2.793,-0.655 -4.201,-0.924c-2.82,-0.531 -5.65,-0.982 -8.498,-1.327c-2.841,-0.37 -5.687,-0.682 -8.546,-0.924c-2.858,-0.241 -5.709,-0.483 -8.573,-0.65c-11.447,-0.704 -22.924,-0.88 -34.41,-0.892c-11.483,0.006 -22.962,0.221 -34.409,0.897c-2.862,0.166 -5.715,0.409 -8.572,0.651c-2.857,0.241 -5.71,0.548 -8.546,0.923c-2.847,0.345 -5.678,0.796 -8.498,1.327c-1.407,0.264 -2.81,0.57 -4.206,0.919c-1.391,0.344 -2.783,0.725 -4.126,1.257c2.509,-1.466 5.28,-2.427 8.041,-3.331c0.232,-0.075 0.467,-0.139 0.703,-0.214l-0.043,-0.177c-0.048,-0.317 -1.069,-7.859 0.709,-18.645c0.086,-0.516 0.456,-0.935 0.962,-1.075l2.917,-0.831c0.634,-22.625 9.952,-33.266 10.243,-33.594c-8.326,13.397 -8.25,29.286 -8.106,32.986l18.128,-5.152l0.042,-0.01l0.226,-0.032l0.075,-0.006c0.092,-0.005 0.195,0.006 0.297,0.027l0.053,0.016l0.224,0.075l0.086,0.049l0.177,0.112l0.049,0.033l0.032,0.032l0.054,0.044c0.012,0.016 0.494,0.493 1.262,1.209c-0.182,-5.973 0.102,-23.108 8.262,-37.31c-0.172,0.498 -6.646,19.428 -4.415,40.645c0.724,0.58 1.486,1.149 2.229,1.649c0.359,0.247 0.58,0.655 0.585,1.09c0.006,0.07 0.161,6.833 3.148,12.586c0.042,0.086 0.074,0.177 0.102,0.268c7.429,-0.505 14.878,-0.709 22.312,-0.714c7.436,0.005 14.88,0.22 22.307,0.731c0.027,-0.097 0.06,-0.193 0.109,-0.285c2.986,-5.753 3.142,-12.516 3.142,-12.586c0.01,-0.436 0.231,-0.843 0.591,-1.09c0.741,-0.5 1.493,-1.069 2.224,-1.649c2.234,-21.217 -4.24,-40.147 -4.411,-40.645c8.153,14.201 8.444,31.336 8.262,37.31c0.762,-0.715 1.246,-1.192 1.261,-1.209l0.053,-0.044l0.033,-0.032l0.049,-0.033l0.177,-0.118l0.081,-0.043l0.236,-0.08l0.049,-0.011c0.096,-0.021 0.2,-0.032 0.296,-0.027l0.07,0.006l0.231,0.032l0.042,0.01l18.129,5.152c0.146,-3.7 0.221,-19.59 -8.104,-32.986c0.289,0.328 9.609,10.969 10.237,33.594l2.922,0.831c0.499,0.14 0.875,0.559 0.962,1.075c1.777,10.786 0.752,18.328 0.708,18.645l-0.042,0.182c0.239,0.07 0.47,0.139 0.707,0.215Z" style="fill:#2d3136;fill-rule:nonzero;"/><path d="M125.667,32.528l0,-9.789l-5.257,0l-9.523,0l-20.444,0l0,9.789l4.816,0l0,-4.974l9.964,0l0,30.225l-4.1,0l0,5.606l13.865,0l0,-5.606l-4.1,0l0,-30.225l9.964,0l0,4.974l4.815,0Zm3.626,-13.408l0,17.025l-12.068,0l0,-4.974l-2.72,0l0,22.981l4.109,0l0,12.85l-21.109,0l0,-12.85l4.092,0l0,-22.98l-2.711,0l0,4.974l-12.06,0l0,-17.026l42.467,0Z" style="fill:#2d3136;fill-rule:nonzero;"/><path d="M125.667,22.738l0,9.79l-4.816,0l0,-4.974l-9.964,0l0,30.225l4.1,0l0,5.606l-13.864,0l0,-5.606l4.1,0l0,-30.225l-9.964,0l0,4.974l-4.816,0l0,-9.79l35.224,0Z" style="fill:#cc334a;fill-rule:nonzero;"/><path d="M30.694,93.266c1.759,-0.399 4.136,-0.907 7.051,-1.47c-1.791,1.221 -3.909,2.754 -6.222,4.597l-0.829,-3.127Z" style="fill:#656c67;fill-rule:nonzero;"/><path d="M95.111,139.927c0,0 0.492,3.165 -3.938,4.519c-4.428,1.355 -32.482,9.716 -35.682,9.263c-3.199,-0.451 -11.319,-5.874 -11.319,-5.874l-1.969,-7.004l12.016,7.492l40.892,-8.396Z" style="fill:#c7b39a;fill-rule:nonzero;"/><path d="M120.242,139.314c0,0 -0.354,3.182 4.131,4.345c4.483,1.161 32.875,8.295 36.05,7.704c3.176,-0.591 11.053,-6.361 11.053,-6.361l1.663,-7.084l-11.045,6.588l-41.852,-5.192Z" style="fill:#c7b39a;fill-rule:nonzero;"/><path d="M28.412,134.103c0,0 3.887,7.775 10.166,5.083l4.485,1.645l-0.448,3.29l-9.419,1.195l-2.541,-1.494l-2.243,-9.719Z" style="fill:#c7b39a;fill-rule:nonzero;"/><path d="M187.551,131.969c0,0 -6.353,8.115 -12.632,5.424l-2.019,1.302l0.448,3.289l9.419,1.196l2.54,-1.495l2.244,-9.716Z" style="fill:#c7b39a;fill-rule:nonzero;"/><path d="M89.279,193.051c0,0 23.03,11.611 49.106,-4.188l-8.374,-0.571c0,0 -18.272,7.232 -32.738,3.235l-7.994,1.524Z" style="fill:#c7b39a;fill-rule:nonzero;"/><path d="M37.745,91.796c-2.915,0.564 -5.292,1.071 -7.051,1.47l0.829,3.127c2.313,-1.844 4.431,-3.376 6.222,-4.597Zm3.815,51.36c-0.218,-0.693 -0.424,-1.398 -0.621,-2.102l-5.162,-3.612c-0.327,-0.228 -0.534,-0.575 -0.586,-0.969l-2.516,-20.449c-1.864,0.999 -4.017,2.225 -4.592,2.707c-0.497,0.409 -0.875,1.46 -0.336,6.332c0.668,6.01 3.712,17.333 5.348,18.979c1.968,0.347 6.327,-0.258 8.465,-0.886Zm30.85,-54.197c3.825,-1.072 7.771,-2.009 11.813,-2.796c-5.798,0.212 -11.6,0.481 -17.393,0.808c-3.366,0.186 -6.715,0.414 -10.065,0.667c-1.678,0.129 -3.345,0.263 -5.007,0.445c-0.476,0.046 -0.942,0.098 -1.418,0.16c-4.369,2.614 -21.127,13.134 -32.631,26.889c11.179,-7.769 30.654,-19.443 54.701,-26.173Zm-2.159,9.949c3.251,-3.225 6.605,-5.886 9.567,-7.967c-11.415,2.651 -21.923,6.543 -31.128,10.778c5.989,-0.968 13.242,-1.977 21.561,-2.811Zm43.814,-13.144c-2.31,-0.036 -4.623,-0.057 -6.933,-0.062l-0.005,0c-3.39,0.005 -6.787,0.041 -10.189,0.109l-6.269,2.971l-0.088,0.048c-0.942,0.46 -9.174,4.613 -16.919,12.021c6.943,-3.65 17.146,-8.418 29.153,-12.115c3.597,-1.102 7.366,-2.118 11.25,-2.972Zm-3.816,18.788c1.827,-1.103 3.582,-2.366 5.249,-3.712c-2.387,-0.041 -4.809,-0.072 -7.278,-0.072c-10.137,0 -19.606,0.415 -28.189,1.061c-8.61,4.209 -13.875,7.672 -13.998,7.76l-8.268,5.514l5.679,-8.149c0.936,-1.353 1.931,-2.636 2.956,-3.857c-9.536,1.066 -17.477,2.329 -23.41,3.422l3.038,24.632l10.453,7.321l33.184,-7.377l6.212,-20.465c0.104,-0.337 0.331,-0.621 0.627,-0.793c0.098,-0.063 0.202,-0.109 0.315,-0.14c0.192,-0.052 3.51,-0.999 7.336,-1.465l6.094,-3.68Zm3.354,78.632c1.056,-0.083 2.117,-0.218 3.184,-0.378c-1.383,-1.438 -2.604,-2.775 -3.568,-3.857c-0.471,1.082 -1.096,2.505 -1.92,4.339l0.243,0c0.658,0.001 1.378,-0.071 2.061,-0.104Zm17.4,7.461c-4.503,-0.332 -8.598,-2.205 -11.903,-5.477c-0.171,-0.175 -0.336,-0.343 -0.502,-0.512c-1.598,0.321 -3.219,0.559 -4.881,0.704c-0.698,0.026 -1.361,0.087 -2.091,0.087l-1.083,0.011l-0.413,-0.011c-4.396,6.539 -14.159,7.813 -14.605,7.87c-0.403,0.046 -0.734,0.103 -1.191,0.186c5.442,1.491 10.996,2.138 16.474,1.77c5.492,-0.367 12.627,-1.558 20.195,-4.628Zm-3.587,-102.085c0.377,-0.471 0.729,-0.926 1.044,-1.34c-3.281,0.331 -6.512,0.808 -9.67,1.408c-10.814,2.024 -20.801,5.389 -29.11,8.837c5.887,-0.285 12.078,-0.455 18.54,-0.455c3.908,0 7.708,0.067 11.404,0.176c3.179,-3.056 5.861,-6.182 7.792,-8.626Zm29.876,-0.926l-0.031,-0.012c-3.272,-0.243 -6.543,-0.466 -9.826,-0.651c-4.555,-0.26 -9.112,-0.477 -13.667,-0.668c-0.265,0.394 -0.802,1.17 -1.574,2.225c-2.479,3.355 -7.398,9.51 -13.704,14.729c8.926,-1.6 24.409,-5.56 37.803,-14.905c0.336,-0.238 0.668,-0.486 0.999,-0.718Zm15.034,51.593l-1.404,0.983l-3.779,2.651l-4.095,2.868c-0.279,0.192 -0.621,0.28 -0.954,0.243l-40.746,-4.633l-2.966,-0.337c-0.549,-0.063 -1.01,-0.446 -1.171,-0.977l-6.377,-20.998c-1.066,-0.145 -2.014,-0.219 -2.81,-0.219c-0.809,0 -1.751,0.073 -2.817,0.219l-6.192,20.392c-0.145,0.476 -0.538,0.839 -1.025,0.946l-43.435,9.672c-0.103,0.02 -0.206,0.03 -0.305,0.03c-0.279,0 -0.559,-0.083 -0.798,-0.253l-1.578,-1.098l-4.726,-3.307l0,-0.011l-1.91,-1.335c0.135,0.43 0.289,0.85 0.441,1.268l-0.006,0.006c0.368,1.092 4.028,11.622 11.467,21.929c7.967,-2.35 14.858,-4.535 17.057,-5.234c4.488,-6.917 10.877,-13.777 15.418,-14.014c0.781,-0.037 1.595,-0.061 2.402,-0.061c2.221,0 4.344,0.16 6.31,0.393c-1.671,-1.517 -2.013,-3.298 -2.256,-4.085c0,0 5.793,4.53 13.17,3.584c7.378,-0.953 11.959,-5.204 11.959,-5.204c0,0 -0.021,3.102 -3.236,5.503c6.182,-1.869 8.739,-2.511 10.489,-2.511c1.931,0 2.883,0.808 3.717,1.519c0.161,0.129 0.322,0.268 0.507,0.419c4.753,3.742 10.468,8.283 12.141,9.614c1.936,0.227 8.075,0.926 11.943,1.283c2.23,0.201 4.245,0.372 6.217,0.372c0.637,0 1.233,-0.026 1.797,-0.063c2.558,-4.88 4.857,-10.411 6.808,-16.653c0.261,-0.96 0.516,-1.928 0.743,-2.901Zm-2.303,-11.845l2.992,-20.948c-8.439,-1.536 -20.78,-3.394 -35.897,-4.554c-13.647,4.707 -25.077,6.108 -25.766,6.155l-0.797,0.057c4.353,0.374 8.454,1.544 8.66,1.605c0.452,0.135 0.804,0.481 0.944,0.933l6.186,20.366l33.138,3.764l10.54,-7.378Zm8.07,4.411l3.385,-23.676c-1.506,-0.326 -3.431,-0.729 -5.731,-1.169l-3.059,21.423c-0.057,0.377 -0.265,0.724 -0.575,0.942l-11.472,8.023c-0.27,0.192 -0.616,0.28 -0.947,0.243l-34.572,-3.929c-0.554,-0.063 -1.015,-0.446 -1.176,-0.973l-6.227,-20.5c-1.668,-0.431 -5.949,-1.43 -9.696,-1.43c-3.764,0 -8.041,0.999 -9.708,1.43l-6.228,20.5c-0.109,0.356 -0.358,0.653 -0.682,0.822c-0.104,0.057 -0.223,0.098 -0.343,0.125l-34.572,7.692c-0.109,0.022 -0.202,0.033 -0.306,0.033c-0.279,0 -0.559,-0.083 -0.792,-0.25l-11.467,-8.029c-0.321,-0.223 -0.534,-0.575 -0.585,-0.968l-3.091,-25.072c-1.284,0.249 -2.443,0.487 -3.479,0.703c-0.734,0.405 -1.46,0.809 -2.174,1.213l3.281,26.568l16.666,11.675l42.047,-9.354l6.207,-20.449c0.156,-0.514 0.585,-0.892 1.108,-0.975c1.574,-0.253 2.95,-0.382 4.116,-0.382c1.153,0 2.536,0.129 4.105,0.382c0.528,0.083 0.957,0.461 1.108,0.975l6.366,20.956l42.282,4.808l16.211,-11.357Zm4.68,-27.237l2.977,-11.29c-4.318,-0.978 -12.27,-2.615 -23.1,-4.148c-5.53,3.976 -11.582,7.155 -17.53,9.691c18.199,1.771 31.57,4.406 37.653,5.747Zm5.161,17.648c0.456,-5.052 0.058,-6.139 -0.455,-6.554c-0.513,-0.43 -2.247,-1.412 -3.935,-2.329l-2.779,19.464c-0.052,0.378 -0.265,0.721 -0.58,0.942l-3.977,2.781c-0.315,1.593 -0.429,2.345 -0.817,3.903c2.273,0.528 5.999,0.938 7.775,0.595c1.612,-1.748 4.214,-12.61 4.768,-18.802Zm11.995,-48.031c0.146,2.914 0.068,5.833 -0.258,8.733c-0.305,2.894 -0.854,5.762 -1.619,8.605c-0.4,1.414 -0.86,2.811 -1.404,4.198c-0.275,0.693 -0.569,1.383 -0.89,2.071c-0.161,0.341 -0.331,0.678 -0.523,1.025l-0.284,0.512c-0.104,0.186 -0.187,0.326 -0.348,0.574l-0.294,0.457l-0.461,0.237c-0.492,0.254 -0.895,0.445 -1.342,0.653l-1.298,0.585c-0.871,0.372 -1.745,0.724 -2.62,1.065c-0.611,0.239 -1.15,0.457 -1.662,0.674l-1.444,5.487c-0.036,-0.009 -0.471,-0.12 -1.283,-0.315l-0.078,0.574c1.594,0.833 4.726,2.522 5.793,3.403c2.148,1.775 2.299,4.587 1.823,9.841c-0.244,2.697 -1.139,7.946 -2.381,12.767c-2.144,8.298 -3.283,9.273 -4.753,9.649c-0.746,0.192 -1.894,0.383 -3.008,0.383c-2.266,0 -5.353,0.063 -7.429,-0.439c-0.533,1.888 -2.055,6.812 -5.068,12.962c0.151,-0.073 0.3,-0.135 0.435,-0.207c3.717,-1.952 10.861,-5.064 11.162,-5.199l5.643,-2.452l-2.89,5.435c-0.067,0.118 -6.264,11.773 -10.059,19.383c-3.769,7.538 -10.835,9.179 -15.065,10.151c-0.637,0.151 -1.241,0.291 -1.733,0.425c-3.035,0.854 -9.18,2.319 -14.599,3.623l-0.197,0.042c-3.335,2.061 -6.974,3.899 -10.955,5.411c-14.568,5.518 -29.923,5.208 -43.844,0.092c-2.261,0.291 -5.234,0.647 -9.193,1.097c-1.72,0.192 -3.392,0.291 -4.985,0.291c-13.264,0 -20.294,-6.736 -25.425,-13.331c-5.493,-7.062 -12.212,-17.546 -12.497,-17.985l-3.896,-6.077l6.585,2.961c3.152,1.419 12.524,5.757 15.205,7c0.217,-0.061 0.43,-0.124 0.642,-0.186c-4.457,-6.357 -8.112,-13.605 -10.695,-21.634c-2.195,0.662 -5.576,1.175 -8.206,1.175c-0.961,0 -1.822,-0.072 -2.484,-0.228c-1.471,-0.336 -3.148,-1.754 -5.431,-9.795c-1.325,-4.668 -2.314,-9.764 -2.603,-12.387c-0.57,-5.121 -0.466,-7.864 1.662,-9.636c1.283,-1.071 5.611,-3.344 6.507,-3.809l-0.192,-1.58c-13.75,8.08 -21.991,15.22 -22.157,15.366l-9.833,8.629l7.005,-11.047c5.544,-8.755 11.948,-15.832 17.84,-21.284c-0.244,-0.098 -0.471,-0.196 -0.71,-0.294l-1.299,-0.585c-0.445,-0.208 -0.849,-0.399 -1.34,-0.653l-0.461,-0.237l-0.295,-0.457c-0.166,-0.249 -0.238,-0.388 -0.347,-0.574l-0.29,-0.512c-0.181,-0.347 -0.358,-0.684 -0.518,-1.025c-0.327,-0.689 -0.621,-1.378 -0.89,-2.071c-0.544,-1.387 -1.005,-2.784 -1.404,-4.198c-0.771,-2.843 -1.315,-5.71 -1.62,-8.605c-0.321,-2.9 -0.404,-5.819 -0.259,-8.733c0.078,-1.455 0.218,-2.909 0.419,-4.354c0.103,-0.725 0.213,-1.45 0.357,-2.17c0.151,-0.734 0.297,-1.418 0.519,-2.221l0.155,-0.564l0.404,-0.317c2.294,-1.802 4.768,-3.163 7.284,-4.369c2.071,-0.973 4.183,-1.833 6.311,-2.616c5.943,-16.493 16.162,-31.118 29.591,-41.311c13.885,-10.535 30.212,-16.105 47.219,-16.105c17.007,0 33.334,5.57 47.218,16.106c13.43,10.193 23.649,24.819 29.588,41.307c2.133,0.787 4.24,1.641 6.316,2.62c2.515,1.206 4.99,2.567 7.283,4.369l0.404,0.317l0.156,0.564c0.227,0.803 0.372,1.487 0.517,2.221c0.146,0.72 0.26,1.445 0.357,2.17c0.203,1.443 0.348,2.897 0.419,4.352Zm-159.43,-18.316c-2.516,1.014 -5.016,2.06 -7.46,3.209c-2.449,1.119 -4.856,2.32 -7.155,3.66c-2.121,1.222 -4.157,2.563 -5.954,4.076c-0.077,0.455 -0.149,0.952 -0.211,1.423c-0.078,0.667 -0.156,1.336 -0.208,2.009c-0.119,1.346 -0.166,2.703 -0.18,4.059c-0.026,2.713 0.16,5.426 0.502,8.112c0.372,2.692 0.864,5.369 1.594,7.952c0.363,1.295 0.767,2.573 1.243,3.804c0.233,0.623 0.492,1.228 0.762,1.818c0.134,0.294 0.274,0.585 0.413,0.864l0.172,0.326c0.201,0.104 0.409,0.207 0.605,0.3l1.206,0.574c0.673,0.311 1.6,0.751 2.366,1.093l0.124,-0.114l-2.231,-8.511c0.471,-0.129 4.717,-1.227 12.032,-2.619c-0.59,-0.109 -1.191,-0.238 -1.775,-0.379c-1.662,-0.413 -3.309,-0.921 -4.898,-1.563c-0.787,-0.336 -1.569,-0.699 -2.309,-1.119c-0.741,-0.425 -1.471,-0.905 -2.035,-1.547c8.035,2.624 24.637,1.433 39.398,-0.088c13.501,-1.393 27.028,-2.293 40.628,-2.325c13.6,0.031 27.138,0.931 40.63,2.325c14.77,1.522 31.374,2.713 39.406,0.088c-0.564,0.642 -1.293,1.122 -2.034,1.547c-0.739,0.42 -1.522,0.782 -2.309,1.119c-1.595,0.642 -3.236,1.149 -4.903,1.563c-0.244,0.056 -0.492,0.114 -0.741,0.166c8.02,1.486 12.689,2.697 13.186,2.832l-2.138,8.107c0.43,-0.192 0.864,-0.377 1.288,-0.574l1.207,-0.574c0.196,-0.094 0.404,-0.196 0.606,-0.3l0.166,-0.326c0.144,-0.279 0.284,-0.57 0.419,-0.864c0.27,-0.591 0.528,-1.196 0.767,-1.818c0.471,-1.231 0.879,-2.51 1.236,-3.804c0.731,-2.583 1.228,-5.26 1.595,-7.952c0.346,-2.686 0.528,-5.4 0.502,-8.112c-0.01,-1.356 -0.062,-2.713 -0.176,-4.059c-0.057,-0.673 -0.13,-1.341 -0.213,-2.009c-0.057,-0.471 -0.135,-0.968 -0.213,-1.423c-1.797,-1.513 -3.831,-2.853 -5.954,-4.076c-2.299,-1.34 -4.704,-2.541 -7.159,-3.66c-2.438,-1.149 -4.943,-2.195 -7.46,-3.209c-1.259,-0.508 -2.528,-1.005 -3.801,-1.476c-1.267,-0.491 -2.552,-0.956 -3.835,-1.423c2.696,0.445 5.369,1.06 8.013,1.739c1.724,0.446 3.444,0.948 5.141,1.481c-12.11,-31.658 -41.07,-52.272 -72.685,-52.272c-31.622,0 -60.576,20.614 -72.684,52.272c1.702,-0.533 3.416,-1.035 5.135,-1.481c2.651,-0.678 5.322,-1.294 8.02,-1.739c-1.29,0.466 -2.568,0.931 -3.842,1.423c-1.268,0.47 -2.535,0.967 -3.799,1.475Zm72.127,115.799l1.594,1.899c0.036,0.046 3.577,4.26 7.906,8.552c2.879,2.853 6.357,4.297 10.343,4.297c1.361,0 2.791,-0.175 4.235,-0.523c1.34,-0.326 2.796,-0.673 4.287,-1.03c5.384,-1.287 11.482,-2.749 14.438,-3.577c0.585,-0.166 1.238,-0.315 1.925,-0.472c3.935,-0.909 9.329,-2.163 12.187,-7.889c2.149,-4.297 5.047,-9.874 7.197,-13.961c-1.863,0.859 -3.816,1.79 -5.203,2.52c-2.138,1.123 -4.938,1.667 -8.558,1.667c-2.152,0 -4.266,-0.181 -6.605,-0.389c-4.675,-0.43 -12.586,-1.361 -12.667,-1.372l-0.606,-0.067l-0.478,-0.383c-0.071,-0.052 -7.003,-5.575 -12.606,-9.981c-0.228,-0.186 -0.435,-0.358 -0.621,-0.513c-0.59,-0.503 -0.59,-0.503 -0.943,-0.503c-1.796,0 -7.019,1.62 -18.461,5.167l-0.703,0.223l-0.689,-0.26c-0.078,-0.026 -7.585,-2.81 -16.581,-2.81c-0.736,0 -1.47,0.019 -2.185,0.056c-0.901,0.046 -5.958,2.448 -12.425,12.68l-0.419,0.657l-0.741,0.238c-0.107,0.037 -11.238,3.63 -23.042,7.005l-0.766,0.218l-0.725,-0.337c-0.077,-0.031 -4.696,-2.174 -9.091,-4.194c2.397,3.541 5.462,7.958 8.159,11.422c4.711,6.067 10.649,11.674 22.034,11.674c1.428,0 2.945,-0.088 4.503,-0.265c11.581,-1.309 14.563,-1.837 16.168,-2.117c0.543,-0.092 0.973,-0.171 1.522,-0.238c0.088,-0.011 9.571,-1.237 12.232,-7.206c2.744,-6.134 3.298,-7.595 3.319,-7.651l0.968,-2.583c0,0 0.12,-0.669 0.317,-0.877l0.005,0.005l0.019,0.016c0.305,0.219 0.757,0.902 0.757,0.902Z" style="fill:#2d3136;fill-rule:nonzero;"/></g></svg>