<?xml version="1.0" encoding="UTF-8" standalone="no"?><!DOCTYPE svg PUBLIC "-//W3C//DTD SVG 1.1//EN" "http://www.w3.org/Graphics/SVG/1.1/DTD/svg11.dtd"><svg width="100%" height="100%" viewBox="0 0 20 22" version="1.1" xmlns="http://www.w3.org/2000/svg" xmlns:xlink="http://www.w3.org/1999/xlink" xml:space="preserve" xmlns:serif="http://www.serif.com/" style="fill-rule:evenodd;clip-rule:evenodd;stroke-linejoin:round;stroke-miterlimit:1.41421;"><path d="M19.016,17.12l-8.665,4.88l0,-3.801l5.399,-2.956l3.266,1.877l0,0Zm0.592,-0.534l0,-10.205l-3.17,1.822l0,6.559l3.17,1.824Zm-18.682,0.534l8.664,4.88l0,-3.801l-5.398,-2.956l-3.266,1.877l0,0Zm-0.593,-0.534l0,-10.205l3.171,1.822l0,6.559l-3.171,1.824Zm0.371,-10.866l8.886,-5.005l0,3.674l-5.693,3.118l-0.043,0.025l-3.15,-1.812Zm18.534,0l-8.887,-5.005l0,3.674l5.693,3.118l0.043,0.025l3.15,-1.812l0.001,0Zm-9.647,11.615l-5.327,-2.916l0,-5.777l5.326,3.062l0,5.631l0.001,0Zm0.76,0l5.326,-2.916l0,-5.777l-5.326,3.062l0,5.631Zm-5.726,-9.362l5.347,-2.928l5.347,2.928l-5.347,3.075l-5.347,-3.075Z" style="fill-rule:nonzero;"/></svg>