<?xml version="1.0" encoding="UTF-8" standalone="no"?><!DOCTYPE svg PUBLIC "-//W3C//DTD SVG 1.1//EN" "http://www.w3.org/Graphics/SVG/1.1/DTD/svg11.dtd"><svg width="100%" height="100%" viewBox="0 0 600 600" version="1.1" xmlns="http://www.w3.org/2000/svg" xmlns:xlink="http://www.w3.org/1999/xlink" xml:space="preserve" xmlns:serif="http://www.serif.com/" style="fill-rule:evenodd;clip-rule:evenodd;stroke-linejoin:round;stroke-miterlimit:2;"><g><path d="M600,300c0,-165.685 -134.314,-299.999 -300,-299.999c-165.686,0 -300,134.314 -300,299.999c0,165.686 134.314,300 300,300c165.686,0 300,-134.314 300,-300Z" style="fill:#25aae0;fill-rule:nonzero;"/><path d="M548.427,254.133c-6.319,-33.374 -24.284,-54.164 -42.697,-67.019c-19.041,-13.294 -41.848,-20.126 -65.072,-20.126l-329.585,0c-11.466,0 -15.858,11.194 -15.901,16.8c-0.006,0.732 0.02,3.659 0.02,3.659c0,0 -0.54,145.812 0.484,223.692c3.11,45.978 49.177,45.963 49.177,45.963c0,0 150.404,-0.441 222.535,-0.889c3.383,-0.021 6.761,-0.386 10.044,-1.207c41.068,-10.274 45.317,-48.428 44.878,-69.696c82.548,4.586 140.792,-53.663 126.117,-131.177Zm-92.731,75.675c-17.605,2.199 -31.908,0.549 -31.908,0.549l0,-107.796l21.662,0c14.317,0 28.127,5.962 37.469,16.81c6.576,7.638 11.837,18.388 11.837,33.238c0,36.298 -18.704,50.598 -39.06,57.199Z" style="fill:#fff;fill-rule:nonzero;"/><path d="M256.614,396.633c3.585,1.805 5.875,-0.437 5.875,-0.437c0,0 52.457,-47.878 76.089,-75.452c21.02,-24.667 22.39,-66.234 -13.707,-81.766c-36.097,-15.531 -65.796,18.272 -65.796,18.272c-25.754,-28.326 -64.733,-26.892 -82.762,-7.722c-18.028,19.17 -11.732,52.072 1.717,70.384c12.625,17.189 68.118,66.65 76.529,75.015c0,0 0.613,0.641 2.055,1.706Z" style="fill:#f15e5e;fill-rule:nonzero;"/></g></svg>