<?xml version="1.0" encoding="UTF-8" standalone="no"?><!DOCTYPE svg PUBLIC "-//W3C//DTD SVG 1.1//EN" "http://www.w3.org/Graphics/SVG/1.1/DTD/svg11.dtd"><svg width="100%" height="100%" viewBox="0 0 400 272" version="1.1" xmlns="http://www.w3.org/2000/svg" xmlns:xlink="http://www.w3.org/1999/xlink" xml:space="preserve" xmlns:serif="http://www.serif.com/" style="fill-rule:evenodd;clip-rule:evenodd;stroke-linejoin:round;stroke-miterlimit:2;"><path d="M258,262.6l-109,-52.6l-72.4,22.3l-71.6,-34.5l76.7,-98.4l-13.1,-24.5l42.2,-38.9l65.4,-2.7l75.7,-28.3l134.8,145l-63.7,96.6l-65,16Z" style="fill:#ff1e1e;fill-rule:nonzero;"/><path d="M83.2,166.8c28.6,8.6 58.5,0.6 89.9,-24.1l147,95.2l-30,18.5l-49,0l-77.5,-38.2l-70.8,18l-80.4,-36.6l57.3,-29.6l13.5,-3.2Zm52,-112.7c10.3,-2.7 31.7,22.3 32.7,28.4c3.8,21.2 5.4,35.5 -20.7,56.4c-15.606,13.267 -36.287,19.013 -56.5,15.7l5.2,-23.3l-18.9,-37.6c13.7,-20.024 34.454,-34.169 58.1,-39.6l0.1,0Z" style="fill:#bf0000;fill-rule:nonzero;"/><path d="M90.5,243.6l-1.7,0.5l-88.5,-39.8l2,-4.5c14.1,-32.6 35,-61.2 62.3,-85.8c3.859,-3.485 7.794,-6.885 11.8,-10.2l-4.6,-8.7l-5.6,-10.5l-1.8,-3.5l-1.2,-2.3l1.1,-2.3c12.3,-25 31.5,-39 62.8,-47.5c19.1,-5 35.1,-4.7 48,1.4c23.855,-13.479 49.515,-23.48 76.2,-29.7l1,-0.2l144.5,155l-1.6,3c-12.156,24.359 -24.623,48.561 -37.4,72.6c-17.3,32.6 -46,44.4 -83.3,39c-28,-4 -58.5,-17 -95,-37.8l-11,-6.1c-16.9,2.5 -43,8.3 -78.1,17.4l0.1,0Zm-19.3,-122.1c-24.368,21.659 -44.011,48.111 -57.7,77.7l61.2,27.6c20.428,-7.406 41.303,-13.518 62.5,-18.3c-21.184,-11.895 -42.384,-23.762 -63.6,-35.6l-4.6,-2.6l23.3,-36.5l-11.1,-21c-3.388,2.837 -6.722,5.737 -10,8.7Zm37.2,48.6l0.1,0c37.8,-6.7 67.4,-36.7 78,-55.7c2.011,-3.017 3.945,-6.085 5.8,-9.2l51.8,-92.2c-26.405,7.021 -51.616,17.942 -74.8,32.4l-10.8,-5c1.79,-1.149 3.59,-2.282 5.4,-3.4c-11.399,-2.336 -23.208,-1.716 -34.3,1.8c-27.6,7.3 -44.2,19.2 -55.2,39.9l0.7,1.2l5.5,10.5l19.6,37c6.263,1.271 12.711,1.339 19,0.2c9.6,-1.4 18.4,-5 25.5,-10.7c14.1,-11.4 21.6,-20 22.2,-27.6c0.7,-9 -5.2,-21.1 -21.7,-44.1c23.3,15.6 39.2,40.6 26.4,58.6l0,0.1c-1.316,1.954 -2.752,3.824 -4.3,5.6c-4.2,4.8 -9.3,9.5 -16.3,15.2c-8.797,6.857 -19.251,11.273 -30.3,12.8c-6.318,1.026 -12.753,1.127 -19.1,0.3l-18.5,29c16.509,9.183 33.009,18.383 49.5,27.6l0,-0.2c51,-2.7 84,-33.6 115.9,-84.3c-24.4,51.8 -54.6,85 -101.2,92.8c9.8,5.4 18.6,10.4 26.6,15c50,-3.3 80.2,-30.7 111.8,-80.9c-24.1,51.2 -51.9,81.4 -97,89.2c4.859,2.741 9.76,5.408 14.7,8c-0.167,-0.166 -0.334,-0.333 -0.5,-0.5c1.819,1.026 3.653,2.026 5.5,3c2.752,1.364 5.518,2.698 8.3,4c49.8,-3.2 77.6,-27.1 109.2,-77.3c-23.2,49.3 -48,76.5 -89.7,85c30.5,9 55.2,3.5 80,-12c8.5,-5.5 28.9,-34.5 61,-87.2l-123.6,-132.6l-52.6,93.8c-8.168,14.158 -18.302,27.087 -30.1,38.4c-17.513,14.469 -39.691,22.111 -62.4,21.5l-0.1,0Z" style="fill:#3c0000;fill-rule:nonzero;"/></svg>