<?xml version="1.0" encoding="UTF-8" standalone="no"?><!DOCTYPE svg PUBLIC "-//W3C//DTD SVG 1.1//EN" "http://www.w3.org/Graphics/SVG/1.1/DTD/svg11.dtd"><svg width="100%" height="100%" viewBox="0 0 158 158" version="1.1" xmlns="http://www.w3.org/2000/svg" xmlns:xlink="http://www.w3.org/1999/xlink" xml:space="preserve" xmlns:serif="http://www.serif.com/" style="fill-rule:evenodd;clip-rule:evenodd;stroke-linejoin:round;stroke-miterlimit:2;"><g id="g994"><path id="path30" d="M134.748,134.75c-30.819,30.826 -80.806,30.822 -111.623,0c-30.833,-30.83 -30.833,-80.813 0,-111.633c30.824,-30.823 80.804,-30.823 111.617,0.003c30.833,30.816 30.833,80.799 0.006,111.629" style="fill:#fff;fill-rule:nonzero;"/><path id="path32" d="M140.382,39.101c1.479,4.79 2.289,9.874 2.289,15.145c0,17.006 -8.361,31.96 -21.078,41.33c-22.114,16.287 -54.345,16.309 -98.848,30.332c13.432,16.054 33.616,26.272 56.188,26.272c40.455,0 73.248,-32.793 73.248,-73.246c0,-14.685 -4.347,-28.357 -11.799,-39.833" style="fill:#2151a1;fill-rule:nonzero;"/><path id="path34" d="M122.861,20.328c-12.24,-9.2 -27.446,-14.642 -43.926,-14.642c-40.453,0 -73.245,32.8 -73.245,73.248c0,16.282 5.312,31.32 14.296,43.479c49.263,-14.344 88.161,-52.987 102.875,-102.085" style="fill:#eb1933;fill-rule:nonzero;"/></g></svg>