<?xml version="1.0" encoding="UTF-8" standalone="no"?><!DOCTYPE svg PUBLIC "-//W3C//DTD SVG 1.1//EN" "http://www.w3.org/Graphics/SVG/1.1/DTD/svg11.dtd"><svg width="100%" height="100%" viewBox="0 0 428 130" version="1.1" xmlns="http://www.w3.org/2000/svg" xmlns:xlink="http://www.w3.org/1999/xlink" xml:space="preserve" xmlns:serif="http://www.serif.com/" style="fill-rule:evenodd;clip-rule:evenodd;stroke-linejoin:round;stroke-miterlimit:2;"><g><path d="M167.801,9.122c-6.782,0 -12.279,5.498 -12.279,12.28c0,6.782 5.497,12.28 12.279,12.28c6.782,0 12.279,-5.498 12.279,-12.28c0,-6.782 -5.497,-12.28 -12.279,-12.28" style="fill-rule:nonzero;"/><path d="M285.275,3.29l-20.174,0l0,26.37l-13.579,0l0,18.901l13.58,0l0,38.065c0,7.441 0.944,13.529 2.834,18.271c1.891,4.738 4.455,8.473 7.694,11.202c3.241,2.733 7.049,4.606 11.432,5.624c4.377,1.022 7.362,1.532 12.341,1.532l15.163,0l0,-18l-13.093,0c-2.219,0 -4.305,-0.284 -6.254,-0.855c-1.948,-0.568 -3.675,-1.56 -5.174,-2.97c-1.499,-1.407 -2.686,-3.328 -3.555,-5.76c-0.869,-2.428 -1.306,-5.503 -1.306,-9.223l0,-37.887l29.611,0l0,-18.9l-29.52,0l0,-26.37Z" style="fill-rule:nonzero;"/><path d="M103.776,78.773c-2.201,5.242 -5.213,9.791 -9.037,13.642c-3.823,3.853 -8.315,6.88 -13.471,9.082c-5.156,2.201 -10.685,3.301 -16.596,3.301c-5.852,0 -11.339,-1.1 -16.466,-3.301c-5.127,-2.202 -9.602,-5.229 -13.426,-9.082c-3.824,-3.851 -6.851,-8.4 -9.081,-13.642c-2.231,-5.244 -3.345,-10.907 -3.345,-16.988c0,-6.084 1.114,-11.76 3.345,-17.034c2.23,-5.271 5.257,-9.833 9.081,-13.686c3.824,-3.852 8.299,-6.878 13.426,-9.08c5.127,-2.201 10.614,-3.301 16.466,-3.301c5.911,0 11.44,1.1 16.596,3.301c5.156,2.202 9.648,5.228 13.471,9.08c3.824,3.853 6.836,8.415 9.037,13.686c2.201,5.274 3.302,10.95 3.302,17.034c0,6.081 -1.101,11.744 -3.302,16.988m24.94,-17.076c0,-8.632 -1.681,-16.698 -5.042,-24.202c-3.36,-7.502 -7.936,-14.034 -13.729,-19.595c-5.794,-5.562 -12.586,-9.935 -20.376,-13.122c-7.794,-3.184 -16.093,-4.778 -24.897,-4.778c-8.864,0 -17.178,1.594 -24.938,4.778c-7.766,3.187 -14.528,7.56 -20.293,13.122c-5.764,5.561 -10.326,12.093 -13.684,19.595c-3.36,7.504 -5.042,15.57 -5.042,24.202c0,8.573 1.682,16.612 5.042,24.114c3.358,7.501 7.92,14.049 13.684,19.637c5.765,5.594 12.527,9.993 20.293,13.21c7.76,3.214 16.074,4.823 24.938,4.823c6.139,0 12.005,-0.77 17.596,-2.302c5.591,-1.535 10.849,-3.753 15.773,-6.649l12.31,12.421c4.034,4.07 10.615,4.065 14.643,-0.011c3.982,-4.029 3.963,-10.518 -0.042,-14.523l-11.095,-11.096c4.634,-5.386 8.269,-11.441 10.904,-18.161c2.636,-6.719 3.955,-13.873 3.955,-21.463" style="fill-rule:nonzero;"/><path d="M405.764,89.292c-1.448,3.42 -3.407,6.367 -5.881,8.841c-2.476,2.475 -5.382,4.394 -8.718,5.755c-3.335,1.363 -6.896,2.044 -10.676,2.044c-3.837,0 -7.424,-0.681 -10.759,-2.044c-3.339,-1.361 -6.257,-3.28 -8.759,-5.755c-2.502,-2.474 -4.477,-5.434 -5.922,-8.885c-1.447,-3.445 -2.169,-7.226 -2.169,-11.342c0,-4.115 0.708,-7.868 2.126,-11.262c1.419,-3.39 3.363,-6.324 5.84,-8.8c2.474,-2.474 5.379,-4.392 8.715,-5.755c3.338,-1.361 6.925,-2.044 10.762,-2.044c3.837,0 7.422,0.695 10.758,2.087c3.338,1.389 6.257,3.307 8.759,5.756c2.504,2.445 4.476,5.379 5.924,8.799c1.445,3.42 2.167,7.16 2.167,11.219c0,4.17 -0.722,7.966 -2.167,11.386m4.17,-54.26l-1.169,9.426c-1.668,-1.614 -3.574,-3.156 -5.713,-4.63c-2.141,-1.474 -4.491,-2.753 -7.05,-3.837c-2.557,-1.085 -5.282,-1.946 -8.172,-2.586c-2.893,-0.639 -5.978,-0.959 -9.26,-0.959c-6.897,0 -13.166,1.197 -18.809,3.586c-5.645,2.392 -10.482,5.646 -14.514,9.759c-4.032,4.115 -7.147,8.939 -9.341,14.473c-2.198,5.533 -3.295,11.442 -3.295,17.724c0,6.285 1.11,12.195 3.336,17.727c2.222,5.533 5.338,10.357 9.341,14.471c4.005,4.116 8.828,7.354 14.473,9.717c5.643,2.364 11.887,3.546 18.728,3.546c3.222,0 6.296,-0.32 9.215,-0.96c2.919,-0.638 5.644,-1.501 8.173,-2.586c2.531,-1.084 4.881,-2.347 7.05,-3.796c2.169,-1.445 4.113,-3.003 5.838,-4.67l1.169,9.425l17.351,0l0,-85.83l-17.351,0Z" style="fill-rule:nonzero;"/><rect x="157.909" y="47.422" width="19.783" height="73.538" style=""/><rect x="207.158" y="47.422" width="19.783" height="73.538" style=""/><path d="M217.05,9.122c-6.782,0 -12.28,5.498 -12.28,12.28c0,6.782 5.498,12.28 12.28,12.28c6.781,0 12.279,-5.498 12.279,-12.28c0,-6.782 -5.498,-12.28 -12.279,-12.28" style="fill-rule:nonzero;"/></g></svg>
